<svg width="24" height="24" viewBox="0 0 24 24" fill="none" xmlns="http://www.w3.org/2000/svg">
<rect x="0.5" y="0.5" width="23" height="23" rx="3.5" fill="white"/>
<rect x="0.5" y="0.5" width="23" height="23" rx="3.5" stroke="#EFEFEF"/>
<path d="M16.5 8.98828C14.835 8.82328 13.16 8.73828 11.49 8.73828C10.5 8.73828 9.51 8.78828 8.52 8.88828L7.5 8.98828" stroke="#DC3545" stroke-width="1.5" stroke-linecap="round" stroke-linejoin="round"/>
<path d="M10.25 8.485L10.36 7.83C10.44 7.355 10.5 7 11.345 7H12.655C13.5 7 13.565 7.375 13.64 7.835L13.75 8.485" stroke="#DC3545" stroke-width="1.5" stroke-linecap="round" stroke-linejoin="round"/>
<path d="M15.4242 10.5703L15.0992 15.6053C15.0442 16.3903 14.9992 17.0003 13.6042 17.0003H10.3942C8.99922 17.0003 8.95422 16.3903 8.89922 15.6053L8.57422 10.5703" stroke="#DC3545" stroke-width="1.5" stroke-linecap="round" stroke-linejoin="round"/>
<path d="M11.1641 14.25H12.8291" stroke="#DC3545" stroke-width="1.5" stroke-linecap="round" stroke-linejoin="round"/>
<path d="M10.75 12.25H13.25" stroke="#DC3545" stroke-width="1.5" stroke-linecap="round" stroke-linejoin="round"/>
</svg>
