<svg width="40" height="40" viewBox="0 0 40 40" fill="none" xmlns="http://www.w3.org/2000/svg">
<rect width="40" height="40" rx="8" fill="#D68C9F"/>
<path d="M17.6341 19.0596C17.5508 19.0513 17.4508 19.0513 17.3591 19.0596C15.3758 18.993 13.8008 17.368 13.8008 15.368C13.8008 13.3263 15.4508 11.668 17.5008 11.668C19.5424 11.668 21.2008 13.3263 21.2008 15.368C21.1924 17.368 19.6174 18.993 17.6341 19.0596Z" stroke="#F9F0FA" stroke-width="1.5" stroke-linecap="round" stroke-linejoin="round"/>
<path d="M23.6747 13.332C25.2914 13.332 26.5914 14.6404 26.5914 16.2487C26.5914 17.8237 25.3414 19.107 23.7831 19.1654C23.7164 19.157 23.6414 19.157 23.5664 19.1654" stroke="#F9F0FA" stroke-width="1.5" stroke-linecap="round" stroke-linejoin="round"/>
<path d="M13.4656 22.132C11.449 23.482 11.449 25.682 13.4656 27.0237C15.7573 28.557 19.5156 28.557 21.8073 27.0237C23.824 25.6737 23.824 23.4737 21.8073 22.132C19.524 20.607 15.7656 20.607 13.4656 22.132Z" stroke="#F9F0FA" stroke-width="1.5" stroke-linecap="round" stroke-linejoin="round"/>
<path d="M25.2852 26.668C25.8852 26.543 26.4518 26.3013 26.9185 25.943C28.2185 24.968 28.2185 23.3596 26.9185 22.3846C26.4602 22.0346 25.9018 21.8013 25.3102 21.668" stroke="#F9F0FA" stroke-width="1.5" stroke-linecap="round" stroke-linejoin="round"/>
</svg>
