<svg width="40" height="40" viewBox="0 0 40 40" fill="none" xmlns="http://www.w3.org/2000/svg">
<rect width="40" height="40" rx="8" fill="#DA8543"/>
<path d="M28.3332 23.9501V13.8917C28.3332 12.8917 27.5165 12.1501 26.5248 12.2334H26.4748C24.7248 12.3834 22.0665 13.2751 20.5832 14.2084L20.4415 14.3001C20.1998 14.4501 19.7998 14.4501 19.5582 14.3001L19.3498 14.1751C17.8665 13.2501 15.2165 12.3667 13.4665 12.2251C12.4748 12.1417 11.6665 12.8917 11.6665 13.8834V23.9501C11.6665 24.7501 12.3165 25.5001 13.1165 25.6001L13.3582 25.6334C15.1665 25.8751 17.9582 26.7917 19.5582 27.6667L19.5915 27.6834C19.8165 27.8084 20.1748 27.8084 20.3915 27.6834C21.9915 26.8001 24.7915 25.8751 26.6082 25.6334L26.8832 25.6001C27.6832 25.5001 28.3332 24.7501 28.3332 23.9501Z" stroke="#FFF0E4" stroke-width="1.5" stroke-linecap="round" stroke-linejoin="round"/>
<path d="M20 14.5742V27.0742" stroke="#FFF0E4" stroke-width="1.5" stroke-linecap="round" stroke-linejoin="round"/>
<path d="M16.4585 17.0742H14.5835" stroke="#FFF0E4" stroke-width="1.5" stroke-linecap="round" stroke-linejoin="round"/>
<path d="M17.0835 19.5742H14.5835" stroke="#FFF0E4" stroke-width="1.5" stroke-linecap="round" stroke-linejoin="round"/>
</svg>
